<?xml version="1.0" encoding="utf-8"?>
<!-- Generator: Adobe Illustrator 16.0.0, SVG Export Plug-In . SVG Version: 6.00 Build 0)  -->
<!DOCTYPE svg PUBLIC "-//W3C//DTD SVG 1.1//EN" "http://www.w3.org/Graphics/SVG/1.1/DTD/svg11.dtd">
<svg version="1.1" id="Capa_1" xmlns="http://www.w3.org/2000/svg" xmlns:xlink="http://www.w3.org/1999/xlink" x="0px" y="0px"
	 width="200px" height="200px" viewBox="0 0 200 200" enable-background="new 0 0 200 200" xml:space="preserve">
<g>
	<g>
		<g>
			<polyline fill="none" stroke="#0B3D42" stroke-width="2" stroke-miterlimit="10" points="108.269,103.442 96.744,114.967 
				88.264,106.486 			"/>
			<g>
				<polygon fill="#0B3D42" points="90.999,104.99 85.22,103.442 86.768,109.221 				"/>
			</g>
		</g>
	</g>
	<text transform="matrix(1 0 0 1 68.3164 127.0645)" fill="#0B3D42" font-family="'Arial-BoldMT'" font-size="9.1136">Impuissance</text>
	<g>
		<line fill="none" stroke="#0B3D42" stroke-width="2" stroke-miterlimit="10" x1="19" y1="83" x2="86" y2="83"/>
		<line fill="none" stroke="#0B3D42" stroke-width="2" stroke-miterlimit="10" x1="106" y1="84" x2="173" y2="84"/>
		<g>
			<g>
				<polyline fill="none" stroke="#0B3D42" stroke-width="2" stroke-miterlimit="10" points="85.011,102.728 96.535,91.203 
					105.016,99.683 				"/>
				<g>
					<polygon fill="#0B3D42" points="102.28,101.18 108.06,102.728 106.512,96.949 					"/>
				</g>
			</g>
		</g>
		<circle fill="none" stroke="#21B4C3" stroke-miterlimit="10" cx="141.489" cy="107.877" r="16.789"/>
		<g>
			<text transform="matrix(1 0 0 1 40.2803 116.0313)" fill="#C2AC0E" font-family="'Montserrat-SemiBold'" font-size="34.5359">S</text>
			
				<line fill="none" stroke="#0B3D42" stroke-linecap="round" stroke-miterlimit="10" x1="60.426" y1="89.57" x2="41.398" y2="118.43"/>
		</g>
		<text transform="matrix(1 0 0 1 41.479 76.2188)"><tspan x="0" y="0" fill="#DD2F58" font-family="'Montserrat-SemiBold'" font-size="34.5359">S</tspan><tspan x="21.723" y="0" fill="#DD2F58" font-family="'Arial-BoldMT'" font-size="11.5119">1</tspan></text>
		<text transform="matrix(1 0 0 1 127.5801 76.2188)"><tspan x="0" y="0" fill="#C23482" font-family="'Montserrat-SemiBold'" font-size="34.5359">S</tspan><tspan x="21.723" y="0" fill="#C23482" font-family="'Arial-BoldMT'" font-size="11.5119">2</tspan></text>
		<text transform="matrix(1 0 0 1 131.1768 116.2715)" fill="#21B4C3" font-family="'Arial-BoldMT'" font-size="34.5359">a</text>
	</g>
</g>
</svg>
