<?xml version="1.0" encoding="utf-8"?>
<!-- Generator: Adobe Illustrator 16.0.0, SVG Export Plug-In . SVG Version: 6.00 Build 0)  -->
<!DOCTYPE svg PUBLIC "-//W3C//DTD SVG 1.1//EN" "http://www.w3.org/Graphics/SVG/1.1/DTD/svg11.dtd">
<svg version="1.1" id="Capa_1" xmlns="http://www.w3.org/2000/svg" xmlns:xlink="http://www.w3.org/1999/xlink" x="0px" y="0px"
	 width="200px" height="200px" viewBox="0 0 200 200" enable-background="new 0 0 200 200" xml:space="preserve">
<g>
	<g>
		<path fill="#DD2F58" d="M97.055,181.167c-31.5,0-57.128-25.626-57.128-57.126c0-31.501,25.628-57.126,57.128-57.126
			c31.496,0,57.123,25.625,57.123,57.126C154.178,155.541,128.551,181.167,97.055,181.167z M97.055,73.333
			c-27.962,0-50.709,22.747-50.709,50.708c0,27.957,22.747,50.707,50.709,50.707c27.961,0,50.703-22.75,50.703-50.707
			C147.758,96.08,125.016,73.333,97.055,73.333z"/>
	</g>
	<g>
		<path fill="#D8C559" d="M100.588,109.459c53.515-49.978,36.834-85.279,30.149-93.663c-0.131-0.291-14.217-1.524-26.474,9.585
			c-0.008,0.145,26.897,25.261,15.456,56.81c0.009-0.144-8.189,13.115-12.845,19.366
			C102.218,107.807,100.588,109.459,100.588,109.459z"/>
		<path fill="#D8C559" d="M101.608,110.554l-2.088-2.144c0.016-0.015,1.664-1.723,6.15-7.751c3.41-4.571,8.757-12.972,11.324-17.01
			c0.444-0.699,0.807-1.268,1.063-1.66c0.114-0.179,0.219-0.342,0.32-0.491c9.588-26.761-9.016-48.723-14.955-54.824
			c-0.347-0.36-0.678-0.696-0.657-1.343l0.022-0.631l0.469-0.427c10.403-9.43,21.98-10.162,25.28-10.162
			c2.226,0,3.031,0.179,3.449,0.85c1.815,2.309,9.688,13.556,7.739,32.221C137.598,67.602,124.769,88.926,101.608,110.554z
			 M118.016,87.622c-0.783,1.232-1.677,2.616-2.618,4.07c0.89-1.078,1.752-2.151,2.586-3.224L118.016,87.622z M106.427,25.488
			c7.001,7.489,24.598,29.928,14.702,57.214l-1.124,3.104c9.814-13.292,15.427-26.32,16.742-38.93
			c1.749-16.737-4.8-26.973-6.848-29.716c-0.288-0.025-0.742-0.053-1.362-0.053C125.631,17.106,115.716,17.731,106.427,25.488z"/>
	</g>
	<g>
		<path fill="#C2AC0E" d="M64.533,124.041c-31.384,0-56.913-25.528-56.913-56.913c0-31.382,25.529-56.915,56.913-56.915
			c31.382,0,56.91,25.533,56.91,56.915C121.442,98.513,95.915,124.041,64.533,124.041z M64.533,16.208
			c-28.079,0-50.921,22.84-50.921,50.921c0,28.079,22.843,50.921,50.921,50.921c28.076,0,50.921-22.843,50.921-50.921
			C115.454,39.047,92.608,16.208,64.533,16.208z"/>
	</g>
	<g>
		<path fill="#21B4C3" d="M132.569,124.468c-31.381,0-56.914-25.533-56.914-56.912c0-31.382,25.533-56.914,56.914-56.914
			c31.382,0,56.912,25.532,56.912,56.914C189.481,98.935,163.951,124.468,132.569,124.468z M132.569,16.633
			c-28.076,0-50.921,22.844-50.921,50.923c0,28.079,22.845,50.921,50.921,50.921c28.078,0,50.921-22.842,50.921-50.921
			C183.49,39.477,160.647,16.633,132.569,16.633z"/>
	</g>
	<g>
		<path fill="#DD2F58" d="M62.621,86.8l-4.349-4.721c7.144-6.585,15.948-11.264,25.458-13.527c2.553-0.608,5.167-1.048,7.766-1.298
			l0.623,6.386c-2.309,0.225-4.632,0.613-6.904,1.157C76.773,76.806,68.958,80.958,62.621,86.8z"/>
	</g>
	<g>
		<path fill="none" stroke="#DD2F58" stroke-width="15" stroke-miterlimit="10" d="M60.444,84.44"/>
	</g>
	<g>
		<path fill="#DD2F58" d="M153.037,135.086l-6.3-1.236c1.398-7.125,1.248-14.349-0.448-21.471l6.245-1.489
			C154.444,118.916,154.612,127.054,153.037,135.086z"/>
	</g>
	<g>
		<path fill="none" stroke="#DD2F58" stroke-width="15" stroke-miterlimit="10" d="M144.14,97.999"/>
	</g>
	<g>
		<path fill="#DD2F58" d="M92.119,73.64l-0.623-6.386c0.595-0.061,1.199-0.109,1.796-0.146l0.417,6.404
			C93.18,73.547,92.648,73.591,92.119,73.64z"/>
	</g>
	<g>
		<path fill="#293333" d="M97.831,195.123v-7.967h1.052v7.967H97.831z"/>
	</g>
	<g>
		<path fill="#293333" d="M5.332,13.903V5.939h3.531c0.711,0,1.25,0.069,1.62,0.214c0.369,0.142,0.666,0.397,0.882,0.758
			c0.223,0.361,0.334,0.761,0.334,1.203c0,0.563-0.186,1.036-0.548,1.429c-0.365,0.383-0.934,0.632-1.696,0.736
			c0.279,0.135,0.49,0.267,0.636,0.396c0.307,0.285,0.597,0.638,0.874,1.059l1.387,2.17h-1.329L9.971,12.25
			c-0.309-0.481-0.56-0.847-0.76-1.103c-0.2-0.25-0.376-0.431-0.536-0.533c-0.157-0.098-0.316-0.17-0.479-0.209
			c-0.121-0.025-0.316-0.037-0.588-0.037H6.386v3.536H5.332z M6.386,9.455h2.266c0.481,0,0.859-0.051,1.128-0.151
			c0.274-0.1,0.481-0.258,0.619-0.478c0.141-0.219,0.216-0.458,0.216-0.711c0-0.378-0.14-0.69-0.411-0.931
			C9.929,6.941,9.5,6.82,8.907,6.82H6.386V9.455z"/>
	</g>
	<g>
		<path fill="#293333" d="M180.282,10.916l0.991-0.086c0.048,0.399,0.158,0.726,0.329,0.978c0.174,0.257,0.44,0.464,0.803,0.62
			c0.359,0.158,0.769,0.237,1.222,0.237c0.4,0,0.756-0.056,1.065-0.177c0.307-0.123,0.538-0.285,0.688-0.494
			c0.147-0.207,0.223-0.432,0.223-0.681s-0.074-0.464-0.215-0.655c-0.146-0.186-0.386-0.344-0.721-0.467
			c-0.214-0.088-0.685-0.219-1.417-0.391c-0.73-0.174-1.242-0.341-1.538-0.497c-0.375-0.2-0.662-0.446-0.849-0.743
			c-0.184-0.295-0.276-0.625-0.276-0.99c0-0.405,0.109-0.778,0.339-1.126c0.229-0.353,0.561-0.616,0.998-0.799
			c0.442-0.18,0.927-0.27,1.463-0.27c0.592,0,1.112,0.095,1.564,0.286c0.447,0.188,0.797,0.471,1.038,0.838
			c0.242,0.371,0.372,0.788,0.39,1.255l-1.008,0.076c-0.056-0.506-0.237-0.882-0.556-1.14c-0.308-0.258-0.771-0.386-1.384-0.386
			c-0.639,0-1.103,0.116-1.396,0.352c-0.291,0.232-0.437,0.515-0.437,0.843c0,0.285,0.104,0.521,0.312,0.708
			c0.2,0.186,0.732,0.374,1.589,0.567c0.854,0.19,1.444,0.362,1.761,0.509c0.464,0.214,0.806,0.483,1.027,0.81
			c0.221,0.326,0.332,0.704,0.332,1.131c0,0.425-0.121,0.822-0.362,1.199c-0.244,0.375-0.592,0.667-1.045,0.874
			c-0.456,0.21-0.969,0.313-1.539,0.313c-0.72,0-1.324-0.103-1.812-0.313c-0.486-0.212-0.867-0.528-1.144-0.951
			C180.44,11.926,180.295,11.449,180.282,10.916z"/>
	</g>
	<g>
		<g>
			<path fill="#293333" d="M63.713,102.576l0.95-0.131c0.023,0.608,0.139,1.025,0.344,1.248c0.199,0.225,0.483,0.339,0.838,0.339
				c0.265,0,0.495-0.061,0.686-0.186c0.193-0.121,0.325-0.284,0.397-0.495c0.072-0.204,0.109-0.541,0.109-0.991v-5.489h1.055v5.426
				c0,0.667-0.081,1.182-0.242,1.547c-0.162,0.37-0.416,0.648-0.767,0.837c-0.351,0.192-0.76,0.289-1.231,0.289
				c-0.697,0-1.233-0.199-1.605-0.603C63.877,103.965,63.696,103.368,63.713,102.576z"/>
		</g>
		<g>
			<path fill="#293333" d="M76.907,104.88h-2.746v-0.097c0.249-0.023,0.42-0.065,0.518-0.124c0.172-0.111,0.26-0.26,0.26-0.453
				c0-0.113-0.039-0.267-0.118-0.457l-0.073-0.177l-0.398-0.987h-1.838l-0.219,0.576l-0.104,0.258
				c-0.124,0.307-0.189,0.549-0.189,0.726c0,0.102,0.023,0.199,0.07,0.287c0.044,0.089,0.109,0.162,0.186,0.219
				c0.109,0.074,0.249,0.12,0.42,0.133v0.097H70.8v-0.097c0.149-0.011,0.279-0.042,0.391-0.107c0.111-0.067,0.221-0.17,0.325-0.312
				c0.09-0.113,0.179-0.26,0.263-0.438c0.086-0.182,0.197-0.451,0.337-0.812l1.529-3.939h0.239l1.816,4.393
				c0.138,0.332,0.245,0.567,0.328,0.712c0.079,0.141,0.165,0.245,0.261,0.319c0.069,0.052,0.144,0.089,0.229,0.113
				c0.088,0.029,0.218,0.053,0.39,0.071V104.88z M74.283,102.416l-0.878-2.166l-0.827,2.166H74.283z"/>
		</g>
		<g>
			
				<rect x="73.303" y="97.861" transform="matrix(0.769 0.6393 -0.6393 0.769 82.5284 -23.3123)" fill="#821433" width="0.429" height="9.328"/>
		</g>
	</g>
	<g>
		<g>
			<path fill="#293333" d="M93.665,52.512l0.953-0.135c0.026,0.611,0.14,1.027,0.343,1.25c0.199,0.225,0.482,0.336,0.843,0.336
				c0.262,0,0.49-0.058,0.68-0.183c0.192-0.121,0.325-0.284,0.396-0.493c0.075-0.207,0.109-0.541,0.109-0.996v-5.485h1.056v5.424
				c0,0.667-0.082,1.185-0.241,1.55c-0.164,0.364-0.416,0.643-0.769,0.838c-0.348,0.188-0.759,0.286-1.228,0.286
				c-0.7,0-1.233-0.2-1.608-0.602C93.831,53.899,93.65,53.302,93.665,52.512z"/>
		</g>
		<g>
			<path fill="#293333" d="M103.388,48.544h0.811v0.758c0.859,0.053,1.517,0.304,1.973,0.752c0.452,0.446,0.681,1.006,0.681,1.673
				c0,0.748-0.248,1.335-0.74,1.766c-0.493,0.431-1.131,0.662-1.913,0.691v0.892h-0.811v-0.892c-0.804-0.03-1.449-0.27-1.931-0.713
				c-0.482-0.445-0.725-1.012-0.725-1.707c0-0.454,0.106-0.865,0.315-1.236c0.207-0.365,0.504-0.653,0.883-0.866
				c0.381-0.212,0.87-0.332,1.457-0.36V48.544z M103.388,50.003c-0.577,0.019-1.021,0.176-1.337,0.474
				c-0.314,0.298-0.473,0.725-0.473,1.283c0,0.564,0.174,0.989,0.519,1.284c0.345,0.291,0.775,0.439,1.291,0.449V50.003z
				 M104.198,53.493c0.568-0.014,1.018-0.177,1.343-0.479c0.322-0.304,0.483-0.728,0.483-1.266c0-0.514-0.155-0.929-0.465-1.257
				c-0.307-0.325-0.76-0.488-1.361-0.488V53.493z"/>
		</g>
		<g>
			
				<rect x="103.684" y="47.368" transform="matrix(0.7708 0.6371 -0.6371 0.7708 56.9595 -54.2649)" fill="#821433" width="0.431" height="9.328"/>
		</g>
	</g>
	<g>
		<path fill="#293333" d="M113.439,104.608l0.97-0.151c0.056,0.388,0.205,0.686,0.453,0.89c0.25,0.209,0.593,0.312,1.038,0.312
			c0.452,0,0.781-0.091,1.002-0.273c0.219-0.187,0.326-0.399,0.326-0.644c0-0.221-0.096-0.396-0.289-0.522
			c-0.131-0.087-0.466-0.198-0.998-0.33c-0.717-0.185-1.216-0.34-1.491-0.472c-0.278-0.131-0.488-0.314-0.633-0.551
			c-0.142-0.232-0.214-0.487-0.214-0.774c0-0.253,0.062-0.492,0.178-0.713c0.118-0.218,0.275-0.399,0.479-0.545
			c0.151-0.112,0.36-0.208,0.623-0.286c0.266-0.077,0.545-0.116,0.844-0.116c0.458,0,0.851,0.064,1.193,0.197
			c0.343,0.13,0.595,0.307,0.758,0.527c0.166,0.223,0.276,0.521,0.337,0.896l-0.956,0.131c-0.046-0.298-0.167-0.53-0.378-0.7
			c-0.207-0.167-0.503-0.248-0.882-0.248c-0.449,0-0.77,0.074-0.962,0.226c-0.191,0.148-0.289,0.322-0.289,0.52
			c0,0.124,0.043,0.24,0.118,0.343c0.083,0.104,0.209,0.189,0.381,0.259c0.094,0.037,0.382,0.121,0.861,0.251
			c0.689,0.186,1.176,0.338,1.447,0.453c0.271,0.118,0.488,0.288,0.646,0.514c0.153,0.224,0.232,0.502,0.232,0.839
			c0,0.325-0.099,0.632-0.285,0.92c-0.188,0.288-0.466,0.509-0.825,0.667c-0.359,0.157-0.762,0.236-1.215,0.236
			c-0.751,0-1.322-0.155-1.714-0.469C113.805,105.682,113.551,105.221,113.439,104.608z"/>
		<path fill="#293333" d="M123.347,104.474l1.011,0.125c-0.162,0.59-0.457,1.046-0.887,1.376c-0.431,0.324-0.983,0.487-1.651,0.487
			c-0.845,0-1.515-0.26-2.008-0.78c-0.498-0.521-0.741-1.25-0.741-2.188c0-0.967,0.25-1.72,0.751-2.259
			c0.499-0.535,1.147-0.804,1.944-0.804c0.768,0,1.4,0.265,1.888,0.785c0.49,0.529,0.734,1.266,0.734,2.221
			c0,0.057,0,0.144-0.006,0.26h-4.301c0.035,0.633,0.213,1.117,0.536,1.455c0.323,0.339,0.725,0.506,1.207,0.506
			c0.359,0,0.663-0.093,0.918-0.283C122.996,105.188,123.198,104.887,123.347,104.474z M120.135,102.892h3.221
			c-0.043-0.483-0.164-0.848-0.369-1.09c-0.311-0.377-0.712-0.566-1.212-0.566c-0.445,0-0.825,0.148-1.132,0.451
			C120.34,101.988,120.169,102.39,120.135,102.892z"/>
		<path fill="#293333" d="M125.584,106.335v-5.771h0.878v0.82c0.425-0.634,1.039-0.952,1.838-0.952c0.348,0,0.667,0.061,0.959,0.188
			c0.29,0.122,0.511,0.288,0.653,0.49c0.146,0.203,0.248,0.444,0.304,0.722c0.037,0.184,0.057,0.5,0.057,0.95v3.553h-0.98v-3.511
			c0-0.399-0.037-0.696-0.111-0.896c-0.077-0.198-0.214-0.355-0.407-0.472c-0.19-0.119-0.421-0.176-0.681-0.176
			c-0.415,0-0.775,0.129-1.08,0.396c-0.3,0.265-0.45,0.767-0.45,1.503v3.155H125.584z"/>
	</g>
	<g>
		<path fill="#293333" d="M96.853,84.352l-1.387-0.251c0.161-0.558,0.425-0.971,0.804-1.236c0.381-0.27,0.951-0.404,1.695-0.404
			c0.685,0,1.188,0.081,1.524,0.242c0.33,0.163,0.567,0.368,0.699,0.613c0.138,0.249,0.21,0.702,0.21,1.366l-0.019,1.781
			c0,0.509,0.022,0.88,0.074,1.122c0.049,0.242,0.14,0.499,0.271,0.776h-1.511c-0.038-0.102-0.091-0.256-0.146-0.453
			c-0.028-0.091-0.042-0.148-0.057-0.179c-0.26,0.253-0.539,0.442-0.836,0.569c-0.295,0.128-0.611,0.188-0.947,0.188
			c-0.598,0-1.065-0.161-1.406-0.479c-0.341-0.323-0.515-0.729-0.515-1.222c0-0.33,0.078-0.618,0.236-0.874
			c0.156-0.255,0.372-0.451,0.657-0.588c0.278-0.137,0.682-0.254,1.209-0.353c0.719-0.136,1.211-0.26,1.487-0.379v-0.148
			c0-0.295-0.074-0.502-0.219-0.629c-0.146-0.124-0.42-0.188-0.819-0.188c-0.272,0-0.486,0.056-0.638,0.161
			C97.069,83.892,96.945,84.084,96.853,84.352z M98.897,85.59c-0.2,0.065-0.507,0.141-0.933,0.233
			c-0.424,0.092-0.698,0.178-0.828,0.266c-0.2,0.142-0.303,0.321-0.303,0.539c0,0.209,0.081,0.395,0.241,0.551
			c0.158,0.158,0.36,0.237,0.61,0.237c0.275,0,0.536-0.091,0.787-0.274c0.186-0.138,0.307-0.307,0.362-0.504
			c0.039-0.13,0.063-0.379,0.063-0.744V85.59z"/>
	</g>
</g>
</svg>
