<?xml version="1.0" encoding="utf-8"?>
<!-- Generator: Adobe Illustrator 16.0.0, SVG Export Plug-In . SVG Version: 6.00 Build 0)  -->
<!DOCTYPE svg PUBLIC "-//W3C//DTD SVG 1.1//EN" "http://www.w3.org/Graphics/SVG/1.1/DTD/svg11.dtd">
<svg version="1.1" id="Capa_1" xmlns="http://www.w3.org/2000/svg" xmlns:xlink="http://www.w3.org/1999/xlink" x="0px" y="0px"
	 width="200px" height="200px" viewBox="0 0 200 200" enable-background="new 0 0 200 200" xml:space="preserve">
<g>
	<g>
		<rect x="5" y="48" fill="#141919" width="178" height="0"/>
	</g>
	<g>
		<rect x="94" y="15" fill="#141919" width="0" height="167"/>
	</g>
	<g>
		<path fill="#821433" d="M39.051,27.634h-4.477v-0.708h3.683v-2.041h-3.318v-0.704h3.318v-1.837h-3.543v-0.708h4.337V27.634z"/>
		<path fill="#821433" d="M39.751,27.634l2.32-3.126l-2.046-2.872h0.945l1.088,1.538c0.227,0.319,0.388,0.564,0.483,0.736
			c0.134-0.218,0.292-0.445,0.475-0.683l1.207-1.592h0.864l-2.107,2.827l2.271,3.171h-0.982l-1.51-2.14
			c-0.084-0.123-0.172-0.257-0.262-0.401c-0.134,0.219-0.229,0.368-0.287,0.45l-1.505,2.091H39.751z"/>
		<path fill="#821433" d="M55.234,21.455h0.794v0.741c0.84,0.052,1.483,0.297,1.929,0.736c0.446,0.439,0.669,0.984,0.669,1.637
			c0,0.731-0.241,1.308-0.724,1.73s-1.107,0.648-1.874,0.676v0.875h-0.794v-0.875c-0.789-0.03-1.418-0.263-1.891-0.698
			c-0.472-0.435-0.708-0.992-0.708-1.671c0-0.445,0.102-0.848,0.307-1.207c0.205-0.36,0.494-0.644,0.868-0.852
			c0.374-0.207,0.848-0.324,1.424-0.352V21.455z M55.234,22.884c-0.562,0.017-0.998,0.17-1.307,0.462
			c-0.31,0.292-0.465,0.711-0.465,1.256c0,0.552,0.169,0.971,0.508,1.257c0.338,0.286,0.759,0.434,1.264,0.441V22.884z M56.028,26.3
			c0.559-0.016,0.997-0.173,1.313-0.47c0.316-0.298,0.475-0.711,0.475-1.24c0-0.502-0.151-0.912-0.454-1.229
			c-0.303-0.317-0.748-0.477-1.334-0.477V26.3z"/>
		<path fill="#821433" d="M59.011,27.634l2.32-3.126l-2.046-2.872h0.945l1.088,1.538c0.227,0.319,0.387,0.564,0.483,0.736
			c0.134-0.218,0.292-0.445,0.475-0.683l1.207-1.592h0.863l-2.107,2.827l2.271,3.171h-0.982l-1.51-2.14
			c-0.084-0.123-0.172-0.257-0.262-0.401c-0.134,0.219-0.229,0.368-0.287,0.45l-1.506,2.091H59.011z"/>
	</g>
	<g>
		<rect x="52" y="19" fill="#821433" width="13" height="1"/>
	</g>
	<g>
		<path fill="#821433" d="M39.982,42.183l2.32-3.126l-2.046-2.873h0.945l1.088,1.539c0.227,0.319,0.388,0.564,0.483,0.736
			c0.134-0.218,0.292-0.445,0.475-0.684l1.207-1.592h0.863l-2.107,2.828l2.271,3.171H44.5l-1.51-2.14
			c-0.084-0.123-0.172-0.257-0.262-0.401c-0.134,0.219-0.229,0.368-0.287,0.45l-1.506,2.091H39.982z"/>
		<path fill="#821433" d="M55.466,36.004h0.794v0.741c0.84,0.052,1.483,0.297,1.929,0.736c0.446,0.438,0.669,0.984,0.669,1.637
			c0,0.731-0.241,1.308-0.724,1.73s-1.108,0.648-1.874,0.675v0.876h-0.794v-0.876c-0.789-0.029-1.418-0.262-1.891-0.697
			c-0.472-0.435-0.708-0.992-0.708-1.672c0-0.444,0.102-0.847,0.307-1.207c0.205-0.359,0.494-0.644,0.868-0.851
			c0.374-0.207,0.848-0.325,1.424-0.352V36.004z M55.466,37.432c-0.562,0.017-0.998,0.171-1.308,0.463
			c-0.31,0.292-0.464,0.711-0.464,1.256c0,0.552,0.169,0.97,0.507,1.257c0.338,0.286,0.76,0.434,1.265,0.441V37.432z M56.26,40.849
			c0.559-0.017,0.997-0.173,1.313-0.471c0.316-0.297,0.475-0.71,0.475-1.239c0-0.502-0.151-0.912-0.454-1.229
			c-0.303-0.318-0.748-0.478-1.334-0.478V40.849z"/>
		<path fill="#821433" d="M59.243,42.183l2.32-3.126l-2.046-2.873h0.945l1.088,1.539c0.227,0.319,0.387,0.564,0.483,0.736
			c0.134-0.218,0.292-0.445,0.475-0.684l1.207-1.592h0.863l-2.107,2.828l2.271,3.171H63.76l-1.51-2.14
			c-0.084-0.123-0.172-0.257-0.262-0.401c-0.134,0.219-0.229,0.368-0.287,0.45l-1.506,2.091H59.243z"/>
	</g>
	<g>
		<path fill="#821433" d="M38.826,36.147l-2.304,5.999h-0.855l-2.455-5.999h0.904l0.7,1.817h2.508l0.659-1.817H38.826z
			 M37.095,38.611h-2.033l0.626,1.661c0.191,0.505,0.333,0.919,0.425,1.244c0.077-0.385,0.184-0.767,0.323-1.146L37.095,38.611z"/>
	</g>
	<g>
		<path fill="#821433" d="M127.041,27.169h-4.477v-0.708h3.684v-2.042h-3.318v-0.704h3.318v-1.837h-3.544V21.17h4.337V27.169z"/>
		<path fill="#821433" d="M127.741,27.169l2.319-3.126l-2.045-2.873h0.945l1.088,1.539c0.227,0.318,0.387,0.564,0.482,0.736
			c0.135-0.219,0.293-0.446,0.475-0.684l1.207-1.592h0.863l-2.106,2.827l2.271,3.172h-0.982l-1.51-2.141
			c-0.084-0.122-0.172-0.256-0.262-0.4c-0.133,0.218-0.229,0.368-0.286,0.45l-1.506,2.091H127.741z"/>
		<path fill="#821433" d="M143.225,20.99h0.793v0.74c0.841,0.052,1.484,0.297,1.93,0.736c0.446,0.439,0.67,0.985,0.67,1.637
			c0,0.731-0.242,1.309-0.725,1.731s-1.107,0.647-1.875,0.675v0.876h-0.793V26.51c-0.789-0.03-1.418-0.263-1.891-0.697
			c-0.472-0.436-0.708-0.992-0.708-1.672c0-0.444,0.103-0.847,0.308-1.207c0.204-0.36,0.493-0.644,0.867-0.852
			c0.373-0.207,0.848-0.324,1.424-0.352V20.99z M143.225,22.418c-0.563,0.017-0.998,0.171-1.308,0.463
			c-0.31,0.291-0.464,0.71-0.464,1.256c0,0.551,0.169,0.97,0.507,1.256c0.339,0.287,0.76,0.434,1.265,0.442V22.418z M144.018,25.835
			c0.561-0.017,0.998-0.174,1.314-0.471c0.316-0.298,0.475-0.711,0.475-1.24c0-0.502-0.152-0.911-0.455-1.229
			c-0.303-0.317-0.746-0.477-1.334-0.477V25.835z"/>
		<path fill="#821433" d="M147.001,27.169l2.32-3.126l-2.046-2.873h0.945l1.088,1.539c0.227,0.318,0.388,0.564,0.483,0.736
			c0.134-0.219,0.292-0.446,0.475-0.684l1.207-1.592h0.863l-2.107,2.827l2.271,3.172h-0.981l-1.51-2.141
			c-0.085-0.122-0.172-0.256-0.263-0.4c-0.133,0.218-0.229,0.368-0.285,0.45l-1.506,2.091H147.001z"/>
	</g>
	<g>
		<rect x="140" y="18" fill="#821433" width="13" height="1"/>
	</g>
	<g>
		<rect x="122" y="18" fill="#821433" width="13" height="1"/>
	</g>
	<g>
		<rect x="121" y="33" fill="#821433" width="13" height="1"/>
	</g>
	<g>
		<path fill="#821433" d="M127.973,41.717l2.32-3.126l-2.047-2.872h0.945l1.089,1.538c0.227,0.319,0.388,0.565,0.483,0.737
			c0.133-0.219,0.291-0.446,0.475-0.684l1.207-1.592h0.863l-2.107,2.827l2.271,3.171h-0.981l-1.51-2.14
			c-0.085-0.123-0.172-0.257-0.262-0.401c-0.135,0.219-0.23,0.369-0.287,0.45l-1.506,2.091H127.973z"/>
		<path fill="#821433" d="M143.456,35.539h0.794v0.74c0.84,0.052,1.482,0.297,1.929,0.736s0.669,0.984,0.669,1.637
			c0,0.731-0.241,1.309-0.725,1.73c-0.482,0.423-1.107,0.648-1.873,0.676v0.875h-0.794v-0.875c-0.788-0.03-1.419-0.263-1.891-0.698
			c-0.472-0.435-0.708-0.992-0.708-1.671c0-0.445,0.103-0.848,0.307-1.207c0.205-0.36,0.494-0.645,0.867-0.852
			c0.375-0.207,0.85-0.324,1.425-0.352V35.539z M143.456,36.967c-0.562,0.016-0.998,0.17-1.308,0.462s-0.465,0.711-0.465,1.257
			c0,0.551,0.17,0.97,0.508,1.256s0.76,0.434,1.265,0.441V36.967z M144.25,40.383c0.559-0.016,0.996-0.173,1.313-0.47
			c0.316-0.298,0.475-0.711,0.475-1.24c0-0.502-0.15-0.912-0.453-1.229c-0.303-0.318-0.748-0.477-1.334-0.477V40.383z"/>
		<path fill="#821433" d="M147.232,41.717l2.32-3.126l-2.046-2.872h0.945l1.089,1.538c0.226,0.319,0.387,0.565,0.482,0.737
			c0.133-0.219,0.291-0.446,0.475-0.684l1.207-1.592h0.863l-2.107,2.827l2.271,3.171h-0.982l-1.51-2.14
			c-0.085-0.123-0.172-0.257-0.262-0.401c-0.134,0.219-0.229,0.369-0.287,0.45l-1.506,2.091H147.232z"/>
	</g>
	<g>
		<path fill="#821433" d="M126.816,35.683l-2.304,5.998h-0.855l-2.455-5.998h0.904l0.7,1.816h2.508l0.659-1.816H126.816z
			 M125.086,38.146h-2.034l0.626,1.661c0.191,0.505,0.333,0.92,0.426,1.244c0.076-0.385,0.184-0.767,0.323-1.146L125.086,38.146z"/>
	</g>
	<g>
		<g>
			<path fill="#C2AC0E" d="M33.587,71.835l1.248-0.108c0.059,0.5,0.197,0.91,0.413,1.23s0.551,0.58,1.006,0.777
				c0.455,0.198,0.966,0.297,1.535,0.297c0.504,0,0.95-0.075,1.336-0.226c0.387-0.149,0.674-0.355,0.863-0.616
				c0.188-0.262,0.283-0.547,0.283-0.856c0-0.313-0.091-0.587-0.273-0.821s-0.482-0.432-0.9-0.591
				c-0.268-0.104-0.861-0.267-1.78-0.487s-1.562-0.429-1.93-0.624c-0.478-0.25-0.833-0.56-1.067-0.931
				c-0.234-0.37-0.351-0.785-0.351-1.245c0-0.504,0.143-0.976,0.429-1.414c0.287-0.439,0.705-0.772,1.255-1
				c0.55-0.228,1.162-0.341,1.834-0.341c0.741,0,1.395,0.12,1.961,0.358c0.566,0.239,1.001,0.59,1.306,1.054
				c0.305,0.463,0.468,0.988,0.491,1.575l-1.269,0.096c-0.068-0.632-0.299-1.109-0.692-1.433c-0.394-0.322-0.975-0.484-1.743-0.484
				c-0.8,0-1.383,0.147-1.749,0.44c-0.366,0.293-0.549,0.646-0.549,1.061c0,0.358,0.13,0.654,0.389,0.886
				c0.255,0.232,0.92,0.47,1.995,0.713c1.075,0.244,1.813,0.456,2.213,0.638c0.582,0.269,1.012,0.608,1.289,1.02
				c0.277,0.412,0.416,0.886,0.416,1.422c0,0.532-0.153,1.033-0.457,1.504c-0.305,0.471-0.743,0.837-1.313,1.099
				c-0.57,0.261-1.213,0.392-1.926,0.392c-0.905,0-1.663-0.132-2.274-0.396c-0.612-0.264-1.091-0.66-1.439-1.189
				C33.789,73.103,33.605,72.504,33.587,71.835z"/>
		</g>
		<g>
			
				<rect x="37.152" y="63.743" transform="matrix(0.8356 0.5494 -0.5494 0.8356 44.7813 -9.1148)" fill="#847208" width="0.931" height="13.026"/>
		</g>
	</g>
	<g>
		<g>
			<path fill="#A82071" d="M148.106,151.049v-9.997h1.323v8.817h4.924v1.18H148.106z"/>
			<path fill="#A82071" d="M160.498,150.156c-0.455,0.386-0.893,0.659-1.313,0.818c-0.421,0.158-0.872,0.238-1.354,0.238
				c-0.796,0-1.407-0.194-1.835-0.583c-0.427-0.389-0.641-0.886-0.641-1.49c0-0.354,0.08-0.679,0.242-0.972
				c0.161-0.293,0.373-0.528,0.635-0.706c0.261-0.177,0.555-0.312,0.883-0.402c0.24-0.063,0.604-0.125,1.091-0.184
				c0.991-0.118,1.721-0.26,2.188-0.423c0.006-0.168,0.008-0.275,0.008-0.321c0-0.5-0.116-0.853-0.348-1.057
				c-0.314-0.277-0.78-0.416-1.398-0.416c-0.578,0-1.004,0.102-1.279,0.304s-0.479,0.561-0.609,1.074l-1.201-0.164
				c0.109-0.514,0.289-0.929,0.539-1.244c0.25-0.316,0.611-0.56,1.084-0.729c0.473-0.171,1.021-0.257,1.645-0.257
				c0.617,0,1.12,0.073,1.507,0.219c0.386,0.146,0.671,0.328,0.853,0.549s0.309,0.499,0.382,0.836
				c0.041,0.209,0.062,0.586,0.062,1.132v1.637c0,1.142,0.025,1.863,0.078,2.165c0.053,0.303,0.156,0.593,0.311,0.869h-1.282
				C160.615,150.795,160.533,150.497,160.498,150.156z M160.395,147.414c-0.445,0.182-1.113,0.337-2.004,0.464
				c-0.505,0.073-0.861,0.154-1.071,0.245c-0.209,0.092-0.37,0.225-0.483,0.399c-0.114,0.175-0.171,0.369-0.171,0.583
				c0,0.327,0.124,0.601,0.372,0.818c0.247,0.219,0.609,0.327,1.088,0.327c0.473,0,0.893-0.103,1.261-0.31s0.64-0.49,0.812-0.85
				c0.132-0.277,0.197-0.687,0.197-1.228V147.414z"/>
		</g>
		<g>
			
				<rect x="154.386" y="137.614" transform="matrix(0.7374 0.6755 -0.6755 0.7374 139.6205 -66.1274)" fill="#D67CB2" width="0.931" height="17.753"/>
		</g>
	</g>
	<g>
		<path fill="#DD2F58" d="M118.729,119.662c-0.454,0.387-0.892,0.659-1.313,0.818c-0.42,0.159-0.871,0.238-1.354,0.238
			c-0.795,0-1.407-0.194-1.834-0.583c-0.428-0.389-0.642-0.886-0.642-1.49c0-0.354,0.081-0.679,0.242-0.972s0.373-0.528,0.634-0.706
			c0.262-0.177,0.557-0.312,0.884-0.402c0.241-0.063,0.604-0.125,1.091-0.184c0.991-0.118,1.721-0.259,2.189-0.423
			c0.004-0.168,0.007-0.275,0.007-0.32c0-0.5-0.116-0.853-0.349-1.058c-0.313-0.277-0.779-0.416-1.397-0.416
			c-0.577,0-1.003,0.102-1.278,0.304s-0.479,0.561-0.611,1.074l-1.199-0.164c0.109-0.514,0.289-0.929,0.539-1.244
			c0.25-0.316,0.611-0.56,1.084-0.73c0.473-0.17,1.021-0.255,1.643-0.255c0.619,0,1.121,0.072,1.508,0.218s0.67,0.328,0.853,0.549
			c0.182,0.221,0.31,0.499,0.382,0.836c0.041,0.209,0.062,0.586,0.062,1.132v1.637c0,1.142,0.026,1.863,0.078,2.165
			c0.052,0.303,0.155,0.593,0.311,0.87h-1.282C118.848,120.301,118.766,120.003,118.729,119.662z M118.627,116.92
			c-0.445,0.183-1.114,0.337-2.005,0.464c-0.505,0.073-0.862,0.155-1.071,0.246s-0.37,0.224-0.484,0.398
			c-0.113,0.175-0.17,0.37-0.17,0.583c0,0.328,0.124,0.601,0.371,0.818c0.248,0.219,0.611,0.328,1.088,0.328
			c0.473,0,0.894-0.104,1.262-0.311c0.369-0.207,0.639-0.49,0.813-0.85c0.131-0.277,0.197-0.687,0.197-1.228V116.92z"/>
	</g>
	<g>
		<path fill="#DD2F58" d="M39.837,143.429h1.323v1.234c1.4,0.087,2.472,0.496,3.215,1.228c0.744,0.732,1.115,1.642,1.115,2.729
			c0,1.218-0.402,2.18-1.207,2.885c-0.805,0.704-1.846,1.079-3.124,1.125v1.459h-1.323v-1.459c-1.313-0.051-2.364-0.438-3.15-1.163
			s-1.18-1.653-1.18-2.786c0-0.74,0.17-1.411,0.511-2.012c0.341-0.6,0.823-1.072,1.446-1.418s1.414-0.541,2.373-0.587V143.429z
			 M39.837,145.809c-0.937,0.027-1.663,0.284-2.179,0.771c-0.516,0.486-0.774,1.184-0.774,2.093c0,0.919,0.282,1.616,0.846,2.094
			c0.563,0.478,1.266,0.724,2.107,0.737V145.809z M41.16,151.504c0.932-0.027,1.662-0.289,2.189-0.785
			c0.527-0.495,0.791-1.184,0.791-2.066c0-0.836-0.252-1.52-0.757-2.049c-0.504-0.529-1.246-0.795-2.223-0.795V151.504z"/>
	</g>
	<g>
		<g>
			
				<rect x="154.153" y="58.544" transform="matrix(0.844 0.5364 -0.5364 0.844 59.0797 -72.7693)" fill="#1D9AA8" width="0.93" height="13.239"/>
		</g>
		<g>
			<path fill="#546666" d="M133.17,66.676l1.248-0.109c0.059,0.5,0.196,0.91,0.412,1.23c0.216,0.321,0.551,0.58,1.006,0.778
				c0.455,0.197,0.967,0.296,1.535,0.296c0.504,0,0.949-0.075,1.336-0.225c0.387-0.15,0.674-0.355,0.863-0.617
				c0.188-0.262,0.283-0.547,0.283-0.856c0-0.313-0.092-0.587-0.273-0.821s-0.482-0.431-0.9-0.59
				c-0.268-0.104-0.861-0.268-1.779-0.487c-0.919-0.221-1.563-0.429-1.931-0.624c-0.478-0.25-0.833-0.561-1.067-0.932
				c-0.234-0.37-0.352-0.785-0.352-1.244c0-0.505,0.145-0.977,0.43-1.415c0.287-0.438,0.705-0.771,1.256-0.999
				c0.55-0.228,1.161-0.342,1.834-0.342c0.741,0,1.395,0.12,1.961,0.358c0.566,0.239,1.001,0.59,1.306,1.054
				s0.468,0.989,0.491,1.575l-1.269,0.096c-0.068-0.632-0.299-1.109-0.692-1.433c-0.393-0.322-0.975-0.483-1.742-0.483
				c-0.801,0-1.383,0.146-1.75,0.439c-0.365,0.294-0.549,0.647-0.549,1.061c0,0.359,0.13,0.655,0.389,0.887
				c0.256,0.231,0.92,0.47,1.995,0.713s1.813,0.456,2.214,0.638c0.581,0.268,1.011,0.607,1.288,1.02
				c0.277,0.411,0.416,0.885,0.416,1.422c0,0.531-0.152,1.033-0.456,1.504c-0.305,0.471-0.742,0.836-1.313,1.098
				s-1.213,0.392-1.927,0.392c-0.904,0-1.662-0.132-2.274-0.396c-0.611-0.264-1.091-0.66-1.438-1.189S133.188,67.344,133.17,66.676z
				"/>
			<path fill="#546666" d="M149.005,72.826c-0.678-0.854-1.251-1.854-1.719-3s-0.702-2.332-0.702-3.561
				c0-1.081,0.175-2.118,0.525-3.109c0.408-1.15,1.041-2.296,1.896-3.438h0.88c-0.551,0.946-0.914,1.621-1.092,2.026
				c-0.277,0.627-0.495,1.282-0.654,1.964c-0.195,0.85-0.293,1.705-0.293,2.564c0,2.187,0.68,4.371,2.039,6.553H149.005z"/>
			<path fill="#167782" d="M150.369,69.888l3.839-9.998h1.425l4.092,9.998h-1.506l-1.166-3.028h-4.182l-1.098,3.028H150.369z
				 M153.254,65.782h3.389l-1.043-2.769c-0.318-0.842-0.555-1.532-0.709-2.074c-0.128,0.642-0.307,1.278-0.539,1.91L153.254,65.782z
				"/>
			<path fill="#546666" d="M161.43,72.826h-0.879c1.359-2.182,2.039-4.366,2.039-6.553c0-0.855-0.098-1.703-0.293-2.544
				c-0.155-0.683-0.371-1.337-0.648-1.964c-0.178-0.41-0.543-1.092-1.098-2.047h0.879c0.855,1.142,1.487,2.287,1.896,3.438
				c0.35,0.991,0.525,2.028,0.525,3.109c0,1.229-0.236,2.415-0.706,3.561C162.675,70.972,162.104,71.972,161.43,72.826z"/>
		</g>
	</g>
	<g>
		<g>
			
				<rect x="42.124" y="93.248" transform="matrix(0.852 0.5236 -0.5236 0.852 60.4793 -26.7417)" fill="#1D9AA8" width="70.826" height="0.699"/>
		</g>
		<g>
			<g>
				<polygon fill="#1D9AA8" points="104.241,113.359 104.104,112.674 107.479,111.998 106.559,108.68 107.232,108.493 
					108.354,112.534 				"/>
			</g>
		</g>
	</g>
	<g>
		<g>
			<rect x="58" y="145" fill="#1D9AA8" width="78" height="1"/>
		</g>
		<g>
			<g>
				<path fill="#1D9AA8" d="M62.289,142.12c0.104,0.162,0.056,0.379-0.107,0.482l-4.506,2.869l4.506,2.87
					c0.163,0.104,0.211,0.32,0.107,0.482c-0.104,0.162-0.321,0.209-0.482,0.106l-4.968-3.164c-0.1-0.063-0.162-0.175-0.162-0.295
					c0-0.119,0.062-0.23,0.162-0.294l4.968-3.164c0.059-0.037,0.123-0.055,0.188-0.055C62.109,141.959,62.223,142.016,62.289,142.12
					z"/>
			</g>
		</g>
	</g>
	<g>
		<g>
			<rect x="154" y="81" fill="#1D9AA8" width="1" height="52"/>
		</g>
		<g>
			<g>
				<polygon fill="#1D9AA8" points="157.416,83.481 156.904,83.958 154.561,81.436 152.216,83.958 151.705,83.481 154.561,80.41 
									"/>
			</g>
		</g>
	</g>
</g>
</svg>
